<?xml version="1.0" standalone="no"?><!DOCTYPE svg PUBLIC "-//W3C//DTD SVG 1.1//EN" "http://www.w3.org/Graphics/SVG/1.1/DTD/svg11.dtd"><svg class="icon" width="200px" height="200.00px" viewBox="0 0 1024 1024" version="1.1" xmlns="http://www.w3.org/2000/svg"><path fill="#ff7744" d="M326.186667 463.424a107.413333 107.413333 0 0 0 208.576-36.053333 107.413333 107.413333 0 0 0-71.338667-101.162667 192 192 0 1 1-137.216 137.216zM512 981.333333C252.8 981.333333 42.666667 771.2 42.666667 512S252.8 42.666667 512 42.666667s469.333333 210.133333 469.333333 469.333333-210.133333 469.333333-469.333333 469.333333z m0-170.666666c164.949333 0 298.666667-133.717333 298.666667-298.666667s-133.717333-298.666667-298.666667-298.666667-298.666667 133.717333-298.666667 298.666667 133.717333 298.666667 298.666667 298.666667zM384 107.52A170.346667 170.346667 0 0 0 516.565333 170.666667a170.346667 170.346667 0 0 0 132.544-63.146667A404.757333 404.757333 0 0 0 516.565333 85.333333c-46.421333 0-91.029333 7.808-132.565333 22.186667z"  /></svg>